PathFileType	4	(X/Y/Z)	C:\Users\italobelli\Desktop\GitHub\PTbot_officialCBL\Personal_Results\SHRUG01_noisy1.trc
DataRate	CameraRate	NumFrames	NumMarkers	Units	OrigDataRate	OrigDataStartFrame	OrigNumFrames
110.888889	110.888889	38	9	m	110.888889	126	500
Frame#	Time		gu		centelbow		EpL		centpxt8		centijc7		ij		ts		aa		ai
			X1	Y1	Z1	X2	Y2	Z2	X3	Y3	Z3	X4	Y4	Z4	X5	Y5	Z5	X6	Y6	Z6	X7	Y7	Z7	X8	Y8	Z8	X9	Y9	Z9

126	1.1273	-0.076963	0.0053455	0.16667	-0.1037	-0.22435	0.23092	-0.083367	-0.21702	0.25461	-0.046816	-0.15316	-0.008669	-0.046816	0.031938	-0.008669	0	0	0	-0.13412	0.043111	0.055306	-0.10146	0.048074	0.16918	-0.15689	-0.065882	0.071963
127	1.1363	-0.0766	0.0064747	0.16648	-0.10284	-0.22304	0.23153	-0.082463	-0.21561	0.25514	-0.046816	-0.15316	-0.008669	-0.046816	0.031938	-0.008669	0	0	0	-0.13399	0.043425	0.055187	-0.10113	0.049125	0.16888	-0.15663	-0.065397	0.072581
128	1.1453	-0.076223	0.0076448	0.16628	-0.10194	-0.22169	0.23216	-0.081525	-0.21415	0.25568	-0.046816	-0.15316	-0.008669	-0.046816	0.031938	-0.008669	0	0	0	-0.13386	0.043745	0.055065	-0.10079	0.050209	0.16858	-0.15635	-0.064902	0.073224
129	1.1543	-0.075831	0.0088528	0.16607	-0.10101	-0.2203	0.23279	-0.080553	-0.21265	0.25622	-0.046816	-0.15316	-0.008669	-0.046816	0.031938	-0.008669	0	0	0	-0.13373	0.044069	0.05494	-0.10044	0.051323	0.16827	-0.15607	-0.064397	0.07389
130	1.1633	-0.075427	0.010095	0.16586	-0.10005	-0.21887	0.23343	-0.079552	-0.2111	0.25677	-0.046816	-0.15316	-0.008669	-0.046816	0.031938	-0.008669	0	0	0	-0.1336	0.044397	0.054812	-0.10008	0.052464	0.16794	-0.15579	-0.063883	0.074579
131	1.1723	-0.075011	0.01137	0.16564	-0.099073	-0.2174	0.23408	-0.078525	-0.20952	0.25733	-0.046816	-0.15316	-0.008669	-0.046816	0.031938	-0.008669	0	0	0	-0.13347	0.044728	0.054681	-0.099709	0.05363	0.16761	-0.15549	-0.063361	0.075286
132	1.1814	-0.074585	0.012672	0.16541	-0.098069	-0.21591	0.23473	-0.077473	-0.20791	0.25789	-0.046816	-0.15316	-0.008669	-0.046816	0.031938	-0.008669	0	0	0	-0.13334	0.045063	0.054548	-0.09933	0.054818	0.16727	-0.15519	-0.062832	0.076011
133	1.1904	-0.07415	0.014	0.16518	-0.097046	-0.21439	0.23539	-0.076401	-0.20627	0.25845	-0.046816	-0.15316	-0.008669	-0.046816	0.031938	-0.008669	0	0	0	-0.1332	0.0454	0.054412	-0.098943	0.056025	0.16692	-0.15489	-0.062297	0.076751
134	1.1994	-0.073707	0.015351	0.16495	-0.096007	-0.21285	0.23605	-0.075311	-0.20461	0.25902	-0.046816	-0.15316	-0.008669	-0.046816	0.031938	-0.008669	0	0	0	-0.13307	0.04574	0.054275	-0.09855	0.05725	0.16656	-0.15458	-0.061757	0.077505
135	1.2084	-0.073258	0.01672	0.16471	-0.094954	-0.21128	0.23671	-0.074207	-0.20292	0.25958	-0.046816	-0.15316	-0.008669	-0.046816	0.031938	-0.008669	0	0	0	-0.13294	0.046081	0.054135	-0.098151	0.058489	0.1662	-0.15427	-0.061213	0.078269
136	1.2174	-0.072803	0.018105	0.16447	-0.09389	-0.2097	0.23738	-0.07309	-0.20122	0.26014	-0.046816	-0.15316	-0.008669	-0.046816	0.031938	-0.008669	0	0	0	-0.1328	0.046424	0.053994	-0.097748	0.059739	0.16583	-0.15396	-0.060664	0.079042
137	1.2265	-0.072344	0.019503	0.16423	-0.092819	-0.20811	0.23804	-0.071965	-0.1995	0.26071	-0.046816	-0.15316	-0.008669	-0.046816	0.031938	-0.008669	0	0	0	-0.13267	0.046769	0.053851	-0.097341	0.061	0.16546	-0.15364	-0.060113	0.079821
138	1.2355	-0.071883	0.020911	0.16398	-0.091742	-0.20651	0.2387	-0.070833	-0.19778	0.26127	-0.046816	-0.15316	-0.008669	-0.046816	0.031938	-0.008669	0	0	0	-0.13253	0.047113	0.053706	-0.096932	0.062266	0.16509	-0.15333	-0.059561	0.080606
139	1.2445	-0.07142	0.022325	0.16374	-0.090662	-0.2049	0.23936	-0.069699	-0.19604	0.26183	-0.046816	-0.15316	-0.008669	-0.046816	0.031938	-0.008669	0	0	0	-0.1324	0.047458	0.053561	-0.096522	0.063537	0.16471	-0.15301	-0.059007	0.081392
140	1.2535	-0.070957	0.023743	0.1635	-0.089584	-0.2033	0.24001	-0.068565	-0.19431	0.26238	-0.046816	-0.15316	-0.008669	-0.046816	0.031938	-0.008669	0	0	0	-0.13227	0.047803	0.053414	-0.096111	0.06481	0.16432	-0.1527	-0.058454	0.082179
141	1.2625	-0.070495	0.02516	0.16325	-0.088508	-0.20169	0.24065	-0.067433	-0.19258	0.26292	-0.046816	-0.15316	-0.008669	-0.046816	0.031938	-0.008669	0	0	0	-0.13214	0.048147	0.053267	-0.095701	0.066082	0.16394	-0.15238	-0.057901	0.082964
142	1.2715	-0.070035	0.026575	0.16301	-0.087438	-0.20009	0.24129	-0.066308	-0.19086	0.26346	-0.046816	-0.15316	-0.008669	-0.046816	0.031938	-0.008669	0	0	0	-0.13201	0.048491	0.053119	-0.095293	0.06735	0.16356	-0.15207	-0.05735	0.083746
143	1.2806	-0.069579	0.027984	0.16277	-0.086378	-0.1985	0.24192	-0.065191	-0.18914	0.26399	-0.046816	-0.15316	-0.008669	-0.046816	0.031938	-0.008669	0	0	0	-0.13188	0.048833	0.05297	-0.094888	0.068612	0.16318	-0.15176	-0.056802	0.084521
144	1.2896	-0.069128	0.029384	0.16253	-0.085329	-0.19692	0.24254	-0.064086	-0.18744	0.26452	-0.046816	-0.15316	-0.008669	-0.046816	0.031938	-0.008669	0	0	0	-0.13175	0.049173	0.052821	-0.094487	0.069865	0.16279	-0.15146	-0.056257	0.085288
145	1.2986	-0.068682	0.030772	0.16229	-0.084295	-0.19535	0.24315	-0.062996	-0.18576	0.26503	-0.046816	-0.15316	-0.008669	-0.046816	0.031938	-0.008669	0	0	0	-0.13163	0.04951	0.052671	-0.09409	0.071107	0.16241	-0.15116	-0.055717	0.086045
146	1.3076	-0.068244	0.032144	0.16206	-0.083278	-0.19381	0.24374	-0.061924	-0.1841	0.26553	-0.046816	-0.15316	-0.008669	-0.046816	0.031938	-0.008669	0	0	0	-0.1315	0.049845	0.052522	-0.0937	0.072335	0.16204	-0.15086	-0.055181	0.086789
147	1.3166	-0.067814	0.033498	0.16183	-0.082281	-0.19228	0.24432	-0.060873	-0.18246	0.26602	-0.046816	-0.15316	-0.008669	-0.046816	0.031938	-0.008669	0	0	0	-0.13138	0.050177	0.052373	-0.093316	0.073546	0.16166	-0.15057	-0.054652	0.087519
148	1.3257	-0.067394	0.03483	0.16161	-0.081307	-0.19079	0.24489	-0.059845	-0.18085	0.26649	-0.046816	-0.15316	-0.008669	-0.046816	0.031938	-0.008669	0	0	0	-0.13127	0.050506	0.052225	-0.092941	0.074739	0.16129	-0.15029	-0.05413	0.088232
149	1.3347	-0.066986	0.036137	0.16139	-0.080359	-0.18932	0.24544	-0.058844	-0.17928	0.26695	-0.046816	-0.15316	-0.008669	-0.046816	0.031938	-0.008669	0	0	0	-0.13115	0.05083	0.052076	-0.092574	0.07591	0.16093	-0.15002	-0.053616	0.088927
150	1.3437	-0.066589	0.037416	0.16118	-0.079439	-0.18789	0.24597	-0.057873	-0.17774	0.2674	-0.046816	-0.15316	-0.008669	-0.046816	0.031938	-0.008669	0	0	0	-0.13104	0.051151	0.051929	-0.092218	0.077057	0.16057	-0.14975	-0.053111	0.089601
151	1.3527	-0.066206	0.038664	0.16098	-0.078551	-0.1865	0.24648	-0.056934	-0.17625	0.26782	-0.046816	-0.15316	-0.008669	-0.046816	0.031938	-0.008669	0	0	0	-0.13093	0.051466	0.051783	-0.091873	0.078177	0.16021	-0.14949	-0.052615	0.090251
152	1.3617	-0.065838	0.039879	0.16078	-0.077697	-0.18514	0.24697	-0.056031	-0.17479	0.26823	-0.046816	-0.15316	-0.008669	-0.046816	0.031938	-0.008669	0	0	0	-0.13082	0.051776	0.051637	-0.09154	0.079268	0.15987	-0.14925	-0.05213	0.090877
153	1.3707	-0.065486	0.041055	0.16059	-0.07688	-0.18383	0.24744	-0.055166	-0.17339	0.26863	-0.046816	-0.15316	-0.008669	-0.046816	0.031938	-0.008669	0	0	0	-0.13072	0.052081	0.051493	-0.09122	0.080327	0.15953	-0.14901	-0.051656	0.091475
154	1.3798	-0.065151	0.042192	0.16041	-0.076104	-0.18257	0.24788	-0.054343	-0.17204	0.269	-0.046816	-0.15316	-0.008669	-0.046816	0.031938	-0.008669	0	0	0	-0.13062	0.05238	0.05135	-0.090915	0.081352	0.1592	-0.14879	-0.051194	0.092044
155	1.3888	-0.064834	0.043284	0.16024	-0.075369	-0.18136	0.2483	-0.053564	-0.17074	0.26935	-0.046816	-0.15316	-0.008669	-0.046816	0.031938	-0.008669	0	0	0	-0.13053	0.052672	0.051209	-0.090624	0.08234	0.15889	-0.14858	-0.050746	0.092582
156	1.3978	-0.064538	0.04433	0.16008	-0.074681	-0.18021	0.24869	-0.052833	-0.16951	0.26968	-0.046816	-0.15316	-0.008669	-0.046816	0.031938	-0.008669	0	0	0	-0.13043	0.052958	0.05107	-0.090351	0.083288	0.15858	-0.14838	-0.050311	0.093086
157	1.4068	-0.064262	0.045327	0.15994	-0.07404	-0.17911	0.24906	-0.052152	-0.16834	0.26998	-0.046816	-0.15316	-0.008669	-0.046816	0.031938	-0.008669	0	0	0	-0.13035	0.053236	0.050932	-0.090094	0.084194	0.15828	-0.1482	-0.049892	0.093554
158	1.4158	-0.064009	0.04627	0.1598	-0.073451	-0.17807	0.2494	-0.051524	-0.16724	0.27026	-0.046816	-0.15316	-0.008669	-0.046816	0.031938	-0.008669	0	0	0	-0.13027	0.053506	0.050797	-0.089856	0.085055	0.158	-0.14803	-0.049488	0.093985
159	1.4248	-0.063779	0.047157	0.15967	-0.072916	-0.17711	0.2497	-0.050953	-0.1662	0.27052	-0.046816	-0.15316	-0.008669	-0.046816	0.031938	-0.008669	0	0	0	-0.13019	0.053769	0.050664	-0.089638	0.085869	0.15773	-0.14787	-0.049101	0.094375
160	1.4339	-0.063574	0.047985	0.15956	-0.072437	-0.1762	0.24998	-0.050441	-0.16525	0.27075	-0.046816	-0.15316	-0.008669	-0.046816	0.031938	-0.008669	0	0	0	-0.13012	0.054023	0.050534	-0.089439	0.086634	0.15747	-0.14773	-0.048732	0.094724
161	1.4429	-0.063396	0.048751	0.15946	-0.072018	-0.17538	0.25022	-0.049992	-0.16437	0.27095	-0.046816	-0.15316	-0.008669	-0.046816	0.031938	-0.008669	0	0	0	-0.13005	0.054268	0.050406	-0.089263	0.087345	0.15723	-0.14761	-0.048381	0.095028
162	1.4519	-0.063244	0.049451	0.15938	-0.071662	-0.17463	0.25043	-0.049607	-0.16358	0.27112	-0.046816	-0.15316	-0.008669	-0.046816	0.031938	-0.008669	0	0	0	-0.12999	0.054504	0.050281	-0.089109	0.088002	0.157	-0.14751	-0.048049	0.095286
163	1.4609	-0.063121	0.050082	0.15931	-0.071371	-0.17395	0.2506	-0.049291	-0.16287	0.27127	-0.046816	-0.15316	-0.008669	-0.046816	0.031938	-0.008669	0	0	0	-0.12993	0.05473	0.050159	-0.088979	0.088601	0.15679	-0.14743	-0.047738	0.095495
